<?xml version="1.0" encoding="UTF-8" standalone="no"?>
<svg
   xmlns:dc="http://purl.org/dc/elements/1.1/"
   xmlns:cc="http://creativecommons.org/ns#"
   xmlns:rdf="http://www.w3.org/1999/02/22-rdf-syntax-ns#"
   xmlns:svg="http://www.w3.org/2000/svg"
   xmlns="http://www.w3.org/2000/svg"
   viewBox="0 0 1496 1496"
   height="1496"
   width="1496"
   xml:space="preserve"
   id="svg2"
   version="1.1"><metadata
     id="metadata8"><rdf:RDF><cc:Work
         rdf:about=""><dc:format>image/svg+xml</dc:format><dc:type
           rdf:resource="http://purl.org/dc/dcmitype/StillImage" /></cc:Work></rdf:RDF></metadata><defs
     id="defs6" /><g
     transform="matrix(1.3333333,0,0,-1.3333333,0,1496)"
     id="g10"><g
       transform="scale(0.1)"
       id="g12"><path
         id="path14"
         style="fill:#ffffff;fill-opacity:1;fill-rule:nonzero;stroke:none"
         d="M 11220,0 H 0 V 11220 H 11220 V 0" /><path
         id="path16"
         style="fill:#ffffff;fill-opacity:1;fill-rule:nonzero;stroke:none"
         d="m 5810.17,4174.45 197.06,-1294.23 h 236.03 l 366.63,1925.07 c -36.07,2.7 -71.9,5.36 -108.58,5.36 h -118.19 c -231.01,-117.87 -493.79,-185.19 -773.09,-185.19 -279.3,0 -542.2,67.32 -773.03,185.19 h -118.2 c -36.85,0 -72.68,-2.66 -108.57,-5.36 l 366.64,-1925.07 h 235.84 l 197.06,1294.23 h 6.9 l -193.43,355.32 h 773.46 l -193.42,-355.32 h 6.89" /><path
         id="path18"
         style="fill:#616e7d;fill-opacity:1;fill-rule:nonzero;stroke:none"
         d="M 6609.89,4805.29 6243.26,2880.22 H 4976.87 L 4610.23,4805.29 C 3861.65,4749.58 3271.21,4126.16 3271.21,3363.14 v -702.43 h 4677.58 v 702.43 c 0,763.02 -590.38,1386.44 -1338.9,1442.15" /><path
         id="path20"
         style="fill:#aad4c8;fill-opacity:1;fill-rule:nonzero;stroke:none"
         d="m 5212.71,2880.22 h 794.52 l -197.06,1294.23 h -6.89 l 193.42,355.32 h -773.46 l 193.43,-355.32 h -6.9 L 5212.71,2880.22" /><path
         id="path22"
         style="fill:#616e7d;fill-opacity:1;fill-rule:nonzero;stroke:none"
         d="m 3819.65,6317.46 c 0,79.61 60.89,144.43 140.04,157.02 0.49,-30.69 1.58,-60.88 2.24,-91.57 -6.59,-53.2 -11.31,-106.82 -11.31,-161.77 0,-63.85 4.84,-126.49 12.59,-188.49 -80.92,11.34 -143.56,77.74 -143.56,158.77 z m 387.58,107.45 c 4.9,31.02 11.62,61.25 18.76,91.6 194.69,138.32 444.22,353.9 539.72,523.53 0,0 1576.68,-369.47 2151.02,-411.81 16.46,-1.24 32.07,-1.91 47.02,-2.02 21.13,-65.49 38.07,-132.19 48.96,-201.3 10.54,-66.69 17.62,-134.36 17.62,-203.77 0,-49.57 -3.15,-98.35 -8.53,-146.46 -9.09,-82.61 -26.57,-162.41 -50.35,-239.84 -173.82,-565.35 -717.84,-979.53 -1361.42,-979.53 -643.57,0 -1187.84,414.02 -1361.53,979.41 -23.85,77.4 -41.27,157.35 -50.23,239.78 -5.51,48.29 -8.66,97.07 -8.66,146.64 0,69.41 7.08,137.08 17.62,203.77 z m 3069.18,45.82 c 70.99,-18.58 123.88,-79.31 123.88,-153.27 v -126.04 c 0,-81.03 -62.7,-147.43 -143.68,-158.77 7.69,62 12.71,124.64 12.71,188.49 0,61.85 -5.69,122.28 -13.37,182.08 7.08,22.36 14.34,44.69 20.46,67.51 z M 3580.65,6317.46 v -126.04 c 0,-215.75 182.35,-391.02 406.46,-391.02 h 23.91 c 122.25,-428.63 425.82,-785.49 825.98,-989.75 230.83,-117.87 493.73,-185.19 773.03,-185.19 279.3,0 542.08,67.32 773.09,185.19 400.16,204.26 703.55,561.12 825.81,989.75 h 23.9 c 224.11,0 406.45,175.27 406.45,391.02 v 126.04 c 0,186.8 -137.19,342.57 -319.72,381.12 6.41,56.17 10.83,112.94 10.83,171.04 l -0.79,16.34 c 0.31,41.39 -1.08,84.18 -6.6,130.15 v 0.15 c -24.99,266.56 -117.82,513.46 -261.14,723.04 -73.83,108.09 -161.95,205.53 -260.18,291.28 -262.6,229.56 -602.97,371.48 -976.98,380.46 l -18.88,14.96 c -16.1,17.64 -33.72,20.78 -45.63,20.78 -28.03,0 -47.7,-18.58 -63.61,-33.83 h -5.15 c -90.3,90.48 -158.2,146.34 -216.42,146.34 h -0.3 c -55.5,-4.27 -315.8,-96.65 -398.89,-159.1 -18.52,-13.87 -39.16,-31.63 -61.01,-51.3 -639.03,-188.67 -1105.59,-779.23 -1105.59,-1479.27 0,-10.72 0.79,-21.25 0.97,-31.78 -0.85,-47.08 0.72,-93.5 5.14,-139.26 -189.49,-32.92 -334.68,-189.48 -334.68,-381.12" /></g></g></svg>